# xmcd
#
# Track frame offsets: 
#        150
#        7280
#        19924
#        21646
#        40239
#        41262
#        56299
#        59921
#        73302
#        103729
#        111719
#        130177
#        131739
#        143377
#        148769
#        150735
#        153974
#        169965
#        171878
#        173417
#        187954
#        204994
#        206304
#        211645
#        227938
#        231832
#        234134
#        238756
#        241819
#        244483
#        264100
#        273192
#        279374
#        279934
#        281222
#        318445
#        340538
#        349896
#
# Disc length: 4768 seconds
#
# Revision: 0
# Processed by: cddbd v1.5.2PL0 Copyright (c) Steve Scherf et al.
# Submitted via: ExactAudioCopy v0.95b4
#
DISCID=31129e26
DTITLE=The Beatles  - AB  Road - Complete Purple Chick Set v1.1 Jan.08
DTITLE=Various Artist - D1  FLAC
DYEAR=1900
DGENRE=
TTITLE0=I Me Mine 8.01
TTITLE1=I Me Mine 8.02
TTITLE2=I Me Mine 8.03
TTITLE3=Dialogue
TTITLE4=Dialogue
TTITLE5=I Me Mine 8.04
TTITLE6=Dialogue
TTITLE7=I've Got A Feeling 8.05
TTITLE8=Get Your Rocks Off 8.06
TTITLE9=Improvisation 8.07
TTITLE10=Improvisation - Honey 8.08
TTITLE11=Honey, Hush 8.09
TTITLE12=Stand By Me 8.10
TTITLE13=Hare Krishna Mantra 8.11
TTITLE14=Well, If You're Ready 8.12
TTITLE15=Hare Krishna Mantra 8.13
TTITLE16=Two Of Us 8.14
TTITLE17=You Got Me Going 8.15
TTITLE18=Twist And Shout 8.16
TTITLE19=Don't Let Me Down 8.17
TTITLE20=I've Got A Feeling 8.18
TTITLE21=Roll Announcement
TTITLE22=St. Louis Blues 8.19
TTITLE23=One After 909 8.20
TTITLE24=Too Bad About Sorrows 8.21
TTITLE25=Just Fun 8.22
TTITLE26=She Said She Said 8.23
TTITLE27=She Came In Through The Bathroom Window 8.24
TTITLE28=One Way Out 8.25
TTITLE29=MacArthur Park 8.26
TTITLE30=All Things Must Pass 8.27
TTITLE31=All Things Must Pass 8.28
TTITLE32=All Things Must Pass 8.29
TTITLE33=All Things Must Pass 8.30
TTITLE34=All Things Must Pass 8.31
TTITLE35=All Things Must Pass 8.32
TTITLE36=All Things Must Pass 8.33
TTITLE37=All Things Must Pass 8.34
EXTD=
EXTT0=
EXTT1=
EXTT2=
EXTT3=
EXTT4=
EXTT5=
EXTT6=
EXTT7=
EXTT8=
EXTT9=
EXTT10=
EXTT11=
EXTT12=
EXTT13=
EXTT14=
EXTT15=
EXTT16=
EXTT17=
EXTT18=
EXTT19=
EXTT20=
EXTT21=
EXTT22=
EXTT23=
EXTT24=
EXTT25=
EXTT26=
EXTT27=
EXTT28=
EXTT29=
EXTT30=
EXTT31=
EXTT32=
EXTT33=
EXTT34=
EXTT35=
EXTT36=
EXTT37=
PLAYORDER=
